Patient4_TMGait_0pt3_03_right_23_GRF.mot
version=1
nRows=38
nColumns=19
inDegrees=no
endheader
time	F1x	F1y	F1z	M1x	M1y	M1z	F2x	F2y	F2z	M2x	M2y	M2z	EC1x	EC1y	EC1z	EC2x	EC2y	EC2z
42.98	-20.4387	790.0437	63.1799	-293.4889	-63.421	766.1788	6.8189	5.4987	-2.7632	1.7435	1.8156	4.4869	-0.0592	0.0182	-0.0073	-0.0462	0.0165	0.9585
42.9984	-19.2277	804.7213	63.4419	-298.7379	-63.4111	777.5326	4.5953	4.1621	-1.7964	1.3307	1.1848	3.5046	-0.0592	0.0182	-0.0073	-0.0462	0.0165	0.9585
43.0167	-17.868	821.099	63.6735	-304.7413	-63.1244	789.716	2.7107	3.0465	-0.97656	0.98392	0.64967	2.7027	-0.0592	0.0182	-0.0073	-0.0462	0.0165	0.9585
43.0351	-16.3448	837.6	63.7824	-310.9199	-62.4485	801.3244	1.2743	2.2215	-0.35439	0.72665	0.24562	2.1263	-0.0592	0.0182	-0.0073	-0.0462	0.0165	0.9585
43.0534	-14.6196	852.2334	63.6872	-316.5055	-61.3162	810.6295	0.27772	1.6738	0.071584	0.55654	-0.029835	1.7555	-0.0592	0.0182	-0.0073	-0.0462	0.0165	0.9585
43.0718	-12.6604	862.8135	63.3288	-320.6386	-59.7088	815.7677	-0.348	1.342	0.32985	0.45518	-0.19688	1.5397	-0.0592	0.0182	-0.0073	-0.0462	0.0165	0.9585
43.0901	-10.4594	867.3073	62.6688	-322.5135	-57.6472	815.0411	-0.69353	1.1417	0.45711	0.39561	-0.27818	1.4099	-0.0592	0.0182	-0.0073	-0.0462	0.0165	0.9585
43.1085	-8.0083	864.2926	61.6748	-321.5636	-55.1559	807.3055	-0.84813	0.98285	0.4906	0.34807	-0.29528	1.2865	-0.0592	0.0182	-0.0073	-0.0462	0.0165	0.9585
43.1269	-5.2721	853.3614	60.3268	-317.6182	-52.255	792.3149	-0.88567	0.76957	0.46193	0.28091	-0.26702	1.0814	-0.0592	0.0182	-0.0073	-0.0462	0.0165	0.9585
43.1452	-2.2075	835.2779	58.6398	-310.959	-48.9853	770.8595	-0.85964	0.40227	0.39647	0.16209	-0.20961	0.70493	-0.0592	0.0182	-0.0073	-0.0462	0.0165	0.9585
43.1636	1.2115	811.8714	56.6976	-302.2733	-45.4392	744.6535	-0.80159	-0.21245	0.31683	-0.039258	-0.14151	0.074718	-0.0592	0.0182	-0.0073	-0.0462	0.0165	0.9585
43.1819	4.9885	785.7425	54.6527	-292.5393	-41.7634	716.0623	-0.72456	-1.1461	0.24503	-0.34773	-0.084569	-0.87551	-0.0592	0.0182	-0.0073	-0.0462	0.0165	0.9585
43.2003	9.1003	759.8563	52.6915	-282.8726	-38.1309	687.7503	-0.62947	-2.4223	0.19996	-0.77384	-0.061172	-2.1722	-0.0592	0.0182	-0.0073	-0.0462	0.0165	0.9585
43.2186	13.5024	737.0724	50.9944	-274.3501	-34.705	662.2562	-0.5052	-3.9889	0.19817	-1.3024	-0.094433	-3.7707	-0.0592	0.0182	-0.0073	-0.0462	0.0165	0.9585
43.237	18.1334	719.7022	49.7047	-267.8443	-31.6142	641.6084	-0.33024	-5.6735	0.25277	-1.8745	-0.20523	-5.4967	-0.0592	0.0182	-0.0073	-0.0462	0.0165	0.9585
43.2554	22.9086	709.1326	48.9151	-263.8829	-28.9484	627.0271	-0.077523	-7.1262	0.37277	-2.3679	-0.40999	-6.9923	-0.0592	0.0182	-0.0073	-0.0462	0.0165	0.9585
43.2737	27.7049	705.6017	48.6628	-262.5577	-26.7674	618.7497	0.27816	-7.7553	0.56136	-2.5768	-0.71893	-7.6708	-0.0592	0.0182	-0.0073	-0.0462	0.0165	0.9585
43.2921	32.3672	708.1768	48.9328	-263.5089	-25.1048	616.0091	0.75207	-6.6797	0.81331	-2.1962	-1.1281	-6.6585	-0.0592	0.0182	-0.0073	-0.0462	0.0165	0.9585
43.3104	36.7012	714.8662	49.6737	-265.97	-23.9823	617.1536	1.3331	-2.7119	1.1095	-0.81746	-1.6077	-2.7698	-0.0592	0.0182	-0.0073	-0.0462	0.0165	0.9585
43.3288	40.4676	722.8932	50.7903	-268.8746	-23.4064	619.892	1.9692	5.5987	1.4098	2.0549	-2.0911	5.4479	-0.0592	0.0182	-0.0073	-0.0462	0.0165	0.9585
43.3471	43.416	729.1381	52.1306	-271.0303	-23.3452	621.6584	2.5466	19.8102	1.6387	6.9509	-2.4554	19.5544	-0.0592	0.0182	-0.0073	-0.0462	0.0165	0.9585
43.3655	45.3168	730.5967	53.4698	-271.3013	-23.7038	619.9873	2.8652	41.271	1.6698	14.3284	-2.4963	40.9104	-0.0592	0.0182	-0.0073	-0.0462	0.0165	0.9585
43.3839	46.0001	724.7445	54.524	-268.7531	-24.3209	612.8055	2.6068	70.6	1.3217	24.3937	-1.9166	70.1612	-0.0592	0.0182	-0.0073	-0.0462	0.0165	0.9585
43.4022	45.416	709.8564	54.9968	-262.7764	-24.9804	598.6816	1.2355	107.0707	0.387	36.8879	-0.32463	106.6143	-0.0592	0.0182	-0.0073	-0.0462	0.0165	0.9585
43.4206	43.6921	685.2857	54.6425	-253.1795	-25.4392	577.0279	-1.6555	148.2173	-1.3684	50.9433	2.6388	147.8461	-0.0592	0.0182	-0.0073	-0.0462	0.0165	0.9585
43.4389	41.1422	651.6362	53.3403	-240.2374	-25.4842	548.2245	-5.8325	190.3307	-4.1656	65.2519	7.0848	190.137	-0.0592	0.0182	-0.0073	-0.0462	0.0165	0.9585
43.4573	38.2282	610.729	51.1592	-224.6664	-24.9964	513.6019	-10.7352	230.6709	-7.881	78.8559	12.6699	230.6694	-0.0592	0.0182	-0.0073	-0.0462	0.0165	0.9585
43.4756	35.4267	565.1122	48.3054	-207.4392	-23.9576	475.096	-15.907	268.9805	-12.137	91.6745	18.8492	269.1117	-0.0592	0.0182	-0.0073	-0.0462	0.0165	0.9585
43.494	33.0559	517.3175	44.9729	-189.512	-22.3945	434.7006	-21.0045	306.4423	-16.5132	104.1387	25.0924	306.5751	-0.0592	0.0182	-0.0073	-0.0462	0.0165	0.9585
43.5124	31.2128	469.3461	41.2551	-171.6361	-20.3354	394.0616	-25.6681	344.2042	-20.6754	116.6696	30.9613	344.1156	-0.0592	0.0182	-0.0073	-0.0462	0.0165	0.9585
43.5307	29.8198	422.5198	37.2072	-154.3024	-17.8417	354.3253	-29.546	382.5942	-24.4513	129.3978	36.1798	381.9733	-0.0592	0.0182	-0.0073	-0.0462	0.0165	0.9585
43.5491	28.6797	377.552	32.9264	-137.7634	-15.0514	316.1581	-32.3796	420.9997	-27.805	142.1238	40.6301	419.4861	-0.0592	0.0182	-0.0073	-0.0462	0.0165	0.9585
43.5674	27.543	334.7098	28.5678	-122.0945	-12.1721	279.8511	-34.036	458.1607	-30.7782	154.4239	44.3058	455.3838	-0.0592	0.0182	-0.0073	-0.0462	0.0165	0.9585
43.5858	26.1896	294.0226	24.3153	-107.2757	-9.4292	245.4784	-34.5166	492.7837	-33.4214	165.8662	47.2495	488.3873	-0.0592	0.0182	-0.0073	-0.0462	0.0165	0.9585
43.6041	24.4843	255.4645	20.3431	-93.2661	-7.0121	213.0444	-33.9404	524.1739	-35.7515	176.2277	49.5114	517.8277	-0.0592	0.0182	-0.0073	-0.0462	0.0165	0.9585
43.6225	22.3953	219.0344	16.774	-80.0382	-5.0345	182.5483	-32.4935	552.4285	-37.7768	185.5506	51.1583	543.8354	-0.0592	0.0182	-0.0073	-0.0462	0.0165	0.9585
43.6409	19.9796	184.7709	13.6605	-67.5862	-3.5211	153.9978	-30.3981	578.1882	-39.5312	194.051	52.2973	567.0941	-0.0592	0.0182	-0.0073	-0.0462	0.0165	0.9585
43.6592	17.3418	152.7879	10.9989	-55.9396	-2.4333	127.4499	-27.9126	602.2047	-41.0778	201.9715	53.0763	588.4218	-0.0592	0.0182	-0.0073	-0.0462	0.0165	0.9585
